#!OML:ASF F:\VICON\USERDATA\INSTALL\rory3\rory3.ASF
:FULLY-SPECIFIED
:DEGREES
1
root -0.283019 18.6742 -1.75877 1.49957 -2.48288 0.355454
lowerback 3.51864 0.264526 0.868093
upperback 0.914254 0.39171 0.708194
thorax -1.03387 0.194188 0.221817
lowerneck -6.78165 -7.88887 -8.86956
upperneck 21.3441 -11.9453 10.2628
head 8.92997 -5.43373 3.71368
rclavicle 9.44227e-016 9.54166e-015
rhumerus -32.0545 0.606558 -74.0822
rradius 38.0934
rwrist 11.7814
rhand -24.564 4.89004
rfingers 7.12502
rthumb 1.93262 -25.0809
lclavicle 9.44227e-016 9.54166e-015
lhumerus -39.4468 20.7643 69.2812
lradius 26.1834
lwrist -2.56915
lhand -19.9229 24.3955
lfingers 7.12502
lthumb 6.41426 54.2784
rfemur -6.01805 20.1848 15.5263
rtibia 23.1315
rfoot -17.8433 -17.3688
rtoes -6.54004
lfemur 0.157361 -9.47476 -12.9976
ltibia 15.3793
lfoot -15.8993 21.3119
ltoes -9.67398
2
root -0.28923 18.6718 -1.7666 1.49796 -2.59672 0.3523
lowerback 3.72221 0.176288 1.01967
upperback 0.924685 0.283475 0.773506
thorax -1.13686 0.139525 0.207786
lowerneck -6.37122 -8.11777 -9.06475
upperneck 21.6237 -12.276 10.1623
head 8.99305 -5.62261 3.68725
rclavicle -6.4605e-016 -9.93923e-015
rhumerus -31.9794 1.02849 -74.0305
rradius 38.9697
rwrist 11.5147
rhand -24.6973 4.55974
rfingers 7.12502
rthumb 1.80389 -25.4124
lclavicle -6.4605e-016 -9.93923e-015
lhumerus -39.4127 20.5104 69.631
lradius 26.3282
lwrist -2.25315
lhand -19.8267 24.737
lfingers 7.12502
lthumb 6.50715 54.617
rfemur -6.20957 20.1948 15.5286
rtibia 23.3552
rfoot -17.785 -17.346
rtoes -6.90021
lfemur 0.0391181 -9.43539 -12.9799
ltibia 15.6179
lfoot -16.0976 21.3291
ltoes -9.2692
3
root -0.297784 18.669 -1.77797 1.49557 -2.72002 0.501456
lowerback 3.95342 0.0971745 1.01011
upperback 0.994673 0.180437 0.768237
thorax -1.19479 0.0879967 0.212134
lowerneck -6.19731 -8.33107 -9.1475
upperneck 21.9607 -12.5831 10.0272
head 9.10829 -5.78501 3.62415
rclavicle -4.67144e-015 -1.59028e-015
rhumerus -31.7182 1.29089 -73.9954
rradius 39.7487
rwrist 11.3546
rhand -24.6617 4.74761
rfingers 7.12502
rthumb 1.83832 -25.2242
lclavicle -4.67144e-015 -1.59028e-015
lhumerus -39.1451 19.951 70.1727
lradius 26.4539
lwrist -1.60505
lhand -19.8514 24.8571
lfingers 7.12502
lthumb 6.48331 54.7378
rfemur -6.49418 20.2473 15.3608
rtibia 23.7223
rfoot -17.8514 -17.2656
rtoes -7.11492
lfemur -0.0502258 -9.27985 -13.112
ltibia 15.7699
lfoot -16.1719 21.2659
ltoes -9.18705
4
root -0.307782 18.6648 -1.78794 1.49501 -2.9396 0.65266
lowerback 4.10745 0.0838446 0.917789
upperback 1.13408 0.159944 0.800966
thorax -1.13839 0.0782813 0.298317
lowerneck -6.25559 -8.54526 -9.16075
upperneck 22.417 -12.8718 9.78795
head 9.29498 -5.93145 3.50615
rclavicle -1.21756e-014 -1.15295e-014
rhumerus -31.3738 1.51743 -73.8802
rradius 40.6044
rwrist 11.0673
rhand -24.5229 4.76439
rfingers 7.12502
rthumb 1.97234 -25.2062
lclavicle -1.21756e-014 -1.15295e-014
lhumerus -38.6751 19.1862 70.9373
lradius 26.4344
lwrist -0.709729
lhand -20.8394 24.2236
lfingers 7.12502
lthumb 5.52939 54.1314
rfemur -6.79748 20.3467 15.1876
rtibia 24.0747
rfoot -17.867 -17.1765
rtoes -7.21528
lfemur -0.11422 -8.95507 -13.2426
ltibia 15.9072
lfoot -16.0847 21.2703
ltoes -9.78699
5
root -0.316331 18.6612 -1.79326 1.48344 -3.19075 0.835088
lowerback 4.16741 0.0761049 0.840057
upperback 1.31042 0.145142 0.807411
thorax -0.991334 0.0714819 0.349289
lowerneck -6.24183 -8.76602 -9.1263
upperneck 22.7658 -13.1551 9.49004
head 9.42259 -6.08143 3.36251
rclavicle -3.08116e-015 5.96354e-015
rhumerus -31.044 1.7473 -73.8162
rradius 41.5428
rwrist 10.9028
rhand -24.4444 4.19587
rfingers 7.12502
rthumb 2.04814 -25.774
lclavicle -3.08116e-015 5.96354e-015
lhumerus -38.3153 18.7585 71.4464
lradius 26.6054
lwrist -0.699735
lhand -21.3143 23.8272
lfingers 7.12502
lthumb 5.07083 53.7466
rfemur -7.09891 20.4759 14.9774
rtibia 24.4768
rfoot -17.9426 -17.097
rtoes -7.33249
lfemur -0.114672 -8.57905 -13.4131
ltibia 15.9925
lfoot -16.013 21.2142
ltoes -10.0078
6
root -0.324086 18.6566 -1.79356 1.44527 -3.42731 1.01873
lowerback 4.27906 0.0307088 0.818605
upperback 1.4382 0.083685 0.802012
thorax -0.922692 0.0410235 0.358797
lowerneck -6.10698 -8.94582 -9.17363
upperneck 23.075 -13.3884 9.25565
head 9.51841 -6.21453 3.26514
rclavicle 1.16289e-014 1.94809e-014
rhumerus -30.8217 2.14214 -73.8111
rradius 42.5262
rwrist 10.7431
rhand -24.7243 3.91385
rfingers 7.12502
rthumb 1.77779 -26.0585
lclavicle 1.16289e-014 1.94809e-014
lhumerus -38.1356 18.7147 71.6461
lradius 26.876
lwrist -1.63366
lhand -20.175 24.0908
lfingers 7.12502
lthumb 6.17091 53.981
rfemur -7.31645 20.5378 14.7822
rtibia 24.8794
rfoot -18.0923 -16.8848
rtoes -7.33339
lfemur -0.095114 -8.16955 -13.5852
ltibia 16.1086
lfoot -15.9859 21.063
ltoes -10.1006
7
root -0.333084 18.6513 -1.80097 1.4306 -3.64744 1.20309
lowerback 4.50443 -0.0300053 0.752321
upperback 1.49875 0.00241803 0.8116
thorax -0.986397 0.000245029 0.409995
lowerneck -5.92088 -9.07795 -9.26247
upperneck 23.3729 -13.579 9.13344
head 9.60743 -6.32312 3.2209
rclavicle -1.73937e-015 -4.37326e-015
rhumerus -30.7352 2.68486 -73.8017
rradius 43.5916
rwrist 10.389
rhand -25.4152 4.22597
rfingers 7.12502
rthumb 1.11059 -25.7509
lclavicle -1.73937e-015 -4.37326e-015
lhumerus -37.9431 18.4926 71.9329
lradius 27.1168
lwrist -2.25495
lhand -18.7512 24.2998
lfingers 7.12502
lthumb 7.54534 54.1452
rfemur -7.594 20.6234 14.5725
rtibia 25.2835
rfoot -18.2654 -16.6895
rtoes -7.26838
lfemur -0.159588 -7.89013 -13.7504
ltibia 16.2451
lfoot -15.9801 21.0207
ltoes -10.1882
